<?xml version="1.0" encoding="UTF-8" standalone="no"?>
<!-- Created with Inkscape (http://www.inkscape.org/) -->

<svg
   xmlns:dc="http://purl.org/dc/elements/1.1/"
   xmlns:cc="http://creativecommons.org/ns#"
   xmlns:rdf="http://www.w3.org/1999/02/22-rdf-syntax-ns#"
   xmlns:svg="http://www.w3.org/2000/svg"
   xmlns="http://www.w3.org/2000/svg"
   version="1.1"
   width="120"
   height="60"
   viewBox="0 0 119.99999 60"
   id="svg2"
   xml:space="preserve">
<path id="path2184" style="fill:#010202" d="m 66.156424,11.508189 c -2.83,-1.916 -4.788,-1.191 -6.693,-0.25 -1.734,0.857 -2.395,0.813 -2.395,0.813 0,-0.926 -0.988,-0.488 -0.988,-0.488 0,0 -0.159,-0.371 -0.606,-0.367 -0.895,0.009 -1.311,1.909 -1.311,1.909 -1.99,0.597 -2.97,2.884 -2.97,2.884 0,0 -0.267,0.21 -0.154,0.411 0.101,0.18 0.362,0.085 0.362,0.085 2.335,1.015 4.103,-0.011 4.103,-0.011 0.306,0.115 0.639,-0.048 0.639,-0.048 0.537,0.657 1.112,0.875 1.716,0.903 0.109,0.308 0.167,1.042 -0.502,0.834 -0.951,-0.296 -1.468,-0.101 -1.698,0.173 -0.154,0.183 -0.106,0.376 0.58,0.362 h 1.713 c 0,0 0.769,0.053 0.804,-0.468 0.033,-0.502 0.428,-1.075 1.023,-1.14 0.927,-0.139 1.891,-0.145 2.86,0.707 0.004,0.003 0.007,0.006 0.011,0.009 0.213,0.193 0.168,0.343 -10e-4,0.392 -0.078,0.017 -0.176,0.011 -0.298,-0.027 -0.952,-0.296 -1.469,-0.102 -1.699,0.172 -0.154,0.183 -0.106,0.369 0.58,0.355 h 2.481 c 1.639,0.817 3.511,0.157 4.096,-0.652 0.014,0.065 0.027,0.133 0.037,0.203 0.085,0.656 -0.148,1.189 -0.696,1.586 -1.106,0.804 -2.429,0.43 -3.827,0.033 -0.203,-0.058 -0.408,-0.115 -0.612,-0.17 -1.613,-0.43 -3.55,-0.724 -6.122,1.227 -0.101,0.076 -0.12,0.219 -0.044,0.319 0.076,0.1 0.219,0.12 0.318,0.044 2.409,-1.827 4.222,-1.552 5.73,-1.149 0.202,0.054 0.404,0.11 0.605,0.167 1.025,0.291 2.074,0.588 3.058,0.4 0.4,-0.076 0.789,-0.232 1.16,-0.502 1.021,-0.74 1.008,-1.796 0.766,-2.536 0.944,-1.213 0.603,-4.401 -2.026,-6.18 z"/>
<path id="path2186" style="fill:#010202" d="m 64.521424,49.586189 c -0.092,0 -0.176,-0.051 -0.221,-0.133 -0.043,-0.082 -0.039,-0.181 0.012,-0.258 0.209,-0.316 0.469,-0.833 0.77,-1.537 0.074,-0.178 0.143,-0.41 0.203,-0.693 -0.238,-0.346 -0.303,-0.777 -0.17,-1.178 0.074,-0.224 0.203,-0.423 0.381,-0.58 0.004,-0.097 0.008,-0.192 0.01,-0.286 -0.166,-0.092 -0.316,-0.18 -0.432,-0.248 -0.246,0.261 -0.855,0.575 -2.348,0.575 -1.324,0 -2.322,-0.357 -3.123,-0.644 -0.143,-0.051 -0.277,-0.099 -0.406,-0.144 -0.025,0.486 -0.049,1.008 -0.076,1.524 0.27,0.21 0.43,0.531 0.43,0.872 0,0.384 -0.199,0.737 -0.52,0.938 l -0.08,1.552 c -0.008,0.134 -0.117,0.238 -0.252,0.238 h -0.842 c -0.086,0 -0.168,-0.046 -0.215,-0.12 -0.045,-0.073 -0.049,-0.166 -0.012,-0.244 0.039,-0.074 0.135,-0.345 0.211,-1.225 0.004,-0.062 0.004,-0.131 0,-0.204 -0.316,-0.202 -0.516,-0.555 -0.516,-0.936 0,-0.234 0.074,-0.46 0.213,-0.649 -0.154,-0.545 -0.35,-1.035 -0.547,-1.494 -0.02,0.013 -0.227,0.138 -0.227,0.138 l -0.047,0.973 c 0.268,0.21 0.428,0.529 0.428,0.872 0,0.383 -0.199,0.736 -0.518,0.938 l -0.084,1.631 c -0.008,0.135 -0.117,0.238 -0.252,0.238 h -0.904 c -0.139,0 -0.191,-0.112 -0.191,-0.252 0,-0.08 0.004,-0.117 0.035,-0.198 0.029,-0.064 0.129,-0.332 0.207,-1.22 0.004,-0.061 0.004,-0.13 0,-0.203 -0.316,-0.201 -0.514,-0.554 -0.514,-0.935 0,-0.235 0.074,-0.461 0.211,-0.651 -0.059,-0.21 -0.123,-0.425 -0.189,-0.641 -0.445,-0.078 -1.125,-0.581 -2.166,-3.006 l -1.1,-0.377 c -0.127,0.048 -0.387,0.149 -0.641,0.281 -0.27,0.14 -0.486,0.28 -0.676,0.402 -0.395,0.256 -0.734,0.477 -1.25,0.477 -0.793,0 -1.156,-0.552 -1.156,-1.065 0,-0.249 0.223,-0.616 0.59,-1.188 0.154,-0.238 0.385,-0.599 0.406,-0.699 -0.002,-0.22 0.076,-0.962 0.109,-1.256 -0.055,-0.055 -0.148,-0.135 -0.279,-0.204 -0.08,-0.043 -0.174,-0.08 -0.264,-0.116 -0.268,-0.106 -0.543,-0.217 -0.543,-0.484 0,-0.082 0.033,-0.35 0.48,-0.35 0.346,0 0.932,0.144 1.244,0.229 0.146,-0.276 0.451,-0.721 0.906,-0.721 0.496,0 0.771,0.327 0.848,0.617 0.123,0.032 0.385,0.082 0.859,0.133 0.133,-0.107 0.283,-0.162 0.447,-0.162 0.313,0 1.125,-0.383 1.715,-0.662 0.695,-0.328 1.1,-0.515 1.332,-0.515 h 13.994 c 0.047,-0.009 0.135,-0.023 0.242,-0.023 0.248,0 1.063,0.094 1.063,1.301 0,0.202 -0.018,0.402 -0.059,0.646 l 0.568,4.935 c 0.016,0.135 -0.078,0.258 -0.213,0.277 -0.012,0.003 -0.025,0.004 -0.037,0.004 -0.119,0 -0.225,-0.087 -0.248,-0.207 l -0.588,-3.247 c -0.07,0.24 -0.119,0.469 -0.119,0.699 0,0.14 -0.008,0.268 -0.018,0.396 l -0.002,0.044 c 0.166,0.947 0.354,2.038 0.539,3.112 0.309,0.191 0.529,0.494 0.607,0.85 0.088,0.402 -0.012,0.819 -0.271,1.137 l 0.441,2.621 c 0.014,0.073 -0.008,0.147 -0.057,0.204 -0.047,0.056 -0.117,0.09 -0.191,0.09 h -1.156 c -0.135,0 -0.246,-0.107 -0.252,-0.241 -0.016,-0.345 -0.057,-0.762 -0.119,-1.243 -0.037,-0.279 -0.146,-0.644 -0.324,-1.087 -0.352,-0.183 -0.607,-0.511 -0.693,-0.899 -0.041,-0.186 -0.041,-0.375 0.002,-0.565 -0.107,-0.204 -0.221,-0.411 -0.336,-0.618 -0.283,0.157 -0.59,0.276 -0.918,0.354 l -0.107,0.277 c 0.188,0.329 0.227,0.714 0.107,1.073 -0.133,0.407 -0.443,0.717 -0.848,0.851 l -0.752,1.949 c -0.039,0.097 -0.133,0.161 -0.236,0.161 h -1.305 l 0,-0.001 z"/>
<path id="path2188" d="m 31.068424,14.682189 c -0.287,-0.236 -1.041,-0.757 -1.678,-1.161 -1.322,-0.841 -1.123,-0.828 -2.389,-0.147 -1.639,0.884 -2.773,1.187 -4.553,1.233 -0.371,0.009 -0.701,-0.01 -0.732,-0.046 -0.031,-0.033 -0.031,-0.198 -0.002,-0.358 0.027,-0.161 0.002,-0.425 -0.057,-0.591 -0.059,-0.168 -0.072,-0.34 -0.029,-0.378 0.043,-0.039 0.145,-0.236 0.23,-0.445 0.164,-0.404 0.113,-0.737 -0.164,-1.043 -0.221,-0.247 -0.617,-0.11 -1.125,0.382 -0.338,0.329 -0.402,0.358 -0.697,0.317 -0.18,-0.025 -0.496,-0.024 -0.693,0.001 -0.344,0.048 -0.363,0.034 -0.662,-0.345 -0.533,-0.675 -1.111,-0.706 -1.385,-0.078 -0.131,0.301 -0.031,0.902 0.188,1.104 0.143,0.134 0.176,0.304 0.156,0.76 l -0.02,0.588 -0.809,0.023 c -1.488,0.033 -1.861,-0.089 -4.096,-1.343 -1.445,-0.812 -1.607,-0.885 -1.771,-0.773 -0.102,0.066 -0.414,0.236 -0.686,0.378 -1.1620001,0.601 -2.0200001,1.167 -2.6930001,1.825 -0.865,0.846 -1.426,1.845 -1.92,3.271 -0.197,0.567 -0.334,1.054 -0.309,1.084 0.027,0.03 0.443,-0.095 0.92,-0.279 1.898,-0.73 3.127,-0.9 4.2250001,-0.584 0.17,0.05 0.605,0.256 0.967,0.454 l 0.662,0.355 0.814,-0.464 c 1.209,-0.682 1.916,-0.71 2.75,-0.117 0.389,0.275 0.396,0.28 0.674,0.057 0.154,-0.123 0.408,-0.257 0.561,-0.298 0.258,-0.066 0.299,-0.044 0.646,0.34 0.252,0.278 0.504,0.464 0.779,0.58 0.311,0.13 0.506,0.29 0.807,0.642 l 0.395,0.462 0.359,-0.396 c 0.295,-0.333 0.469,-0.452 1.049,-0.708 0.6,-0.262 0.713,-0.338 0.803,-0.546 0.096,-0.218 0.135,-0.242 0.404,-0.207 0.164,0.021 0.439,0.158 0.609,0.299 l 0.309,0.251 0.443,-0.255 c 0.918,-0.537 1.598,-0.445 2.797,0.369 l 0.705,0.484 0.619,-0.3 c 0.73,-0.353 1.121,-0.471 1.781,-0.528 1.023,-0.088 2.461,0.348 4.316,1.3 0.203,0.103 0.209,0.093 0.09,-0.432 -0.491,-2.127 -1.368,-3.736 -2.588,-4.737 z"/>
<path d="m 31.155424,36.675189 c 0.221,-0.439 -0.438,-1.099 -0.657,-1.099 -0.001,0 -1.317,0 -1.757,0 -0.122,0 -0.315,-0.219 -0.438,-0.219 -0.219,0 -0.659,0 -0.659,0 0,0 -0.381,-0.577 -0.658,-0.438 -0.439,0.219 0,1.097 0,1.097 -1.317,1.097 -1.035,2.97 -2.571,2.97 -1.021,0 -2.038,-1.433 -3.136,-1.873 -0.42,-0.166 -1.316,-0.218 -1.756,-0.438 -0.736,-0.368 -0.878,-1.977 -2.634,-1.977 -1.756,0 -2.625,1.824 -3.512,2.414 -0.658,0.44 -2.854,1.099 -2.854,2.635 0,0.065 -0.6140001,2.414 -0.8330001,2.854 -0.031,0.062 -1.318,1.317 -1.099,1.756 0.013,0.024 0.879,-0.219 1.317,-1.536 0.2710001,-0.816 0.6580001,-2.195 0.6580001,-2.195 0,0 0.127,0.505 0.178,0.878 0.071,0.531 0.116,1.032 0.043,1.317 -0.062,0.233 -1.1520001,1.947 -1.7570001,2.854 -0.439,0.657 -0.684,0.684 -0.878,0.877 -0.22,0.22 0.032,1.154 0,1.536 -0.062,0.729 -0.516,2.125 -0.439,2.854 0.021,0.196 0.046,0.565 0.221,0.659 h 1.536 c 0,-0.659 -0.739,-0.601 -0.879,-0.878 -0.22,-0.439 0.132,-2.276 0.221,-2.635 0.144,-0.584 0.438,-0.438 0.658,-0.878 0.188,-0.376 0.021,-0.359 0.22,-0.657 0.4380001,-0.66 1.7110001,-1.537 1.7110001,-1.537 l -0.219,1.975 0.658,1.976 0.659,2.635 h 1.756 c 0,-0.878 -0.807,-0.681 -1.098,-0.878 -0.245,-0.166 -0.391,-0.806 -0.438,-1.099 -0.073,-0.437 -0.196,-1.314 -0.22,-1.756 -0.019,-0.328 -0.04,-0.989 0,-1.315 0.06,-0.504 0.232,-1.514 0.438,-1.977 0.161,-0.361 0.753,-0.941 0.878,-1.316 0.053,-0.156 -0.09,-0.521 0,-0.659 0.095,-0.146 0.485,-0.231 0.659,-0.22 0.398,0.03 1.149,0.336 1.536,0.439 0.592,0.159 2.414,0.438 2.414,0.438 0,0 -0.521,2.039 -0.879,2.634 -0.141,0.236 -0.581,0.615 -0.657,0.879 -0.077,0.264 0.063,0.83 0,1.097 -0.154,0.646 -0.904,1.781 -1.098,2.415 -0.098,0.318 -0.22,1.316 -0.22,1.316 h 1.536 c 0,-0.658 -0.338,-0.653 -0.439,-0.878 -0.262,-0.585 0.511,-1.889 0.878,-2.414 0.134,-0.191 0.544,-0.455 0.659,-0.658 0.111,-0.197 0.145,-0.665 0.22,-0.878 0.294,-0.835 1.756,-3.073 1.756,-3.073 l 0.659,-0.439 c 0,0 0.658,0.659 1.097,3.073 0.061,0.329 0.09,1.009 0.22,1.317 0.077,0.182 0.353,0.48 0.439,0.658 0.38,0.779 1.097,3.293 1.097,3.293 h 1.757 c 0,-0.878 -0.81,-0.677 -1.098,-0.878 -0.526,-0.368 -0.878,-2.414 -0.878,-2.414 0,0 0.061,-0.661 0,-0.878 -0.042,-0.15 -0.17,-0.293 -0.219,-0.439 -0.221,-0.659 -0.44,-1.976 -0.44,-2.854 0,-0.452 -0.219,-1.757 0.44,-1.757 0.657,0 1.755,0 2.413,-0.438 1.724,-1.148 2.149,-3.335 2.854,-4.39 0.441,-0.658 2.497,-0.602 2.634,-0.878 z" id="path2192" style="fill:#010202" />
<path d="m 104.57542,37.006189 c 0.1,-0.058 0.223,-0.039 0.33,-0.023 0.27,0.052 0.475,0.254 0.631,0.466 0.107,-0.067 0.223,-0.137 0.354,-0.149 0.105,-0.002 0.193,0.075 0.248,0.158 0.1,0.162 0.135,0.36 0.258,0.512 0.027,0.037 0.072,0.056 0.113,0.074 0.172,0.073 0.33,0.179 0.48,0.288 0.064,0.04 0.07,0.124 0.094,0.188 0.086,0.281 0.055,0.578 0.027,0.865 -0.008,0.145 -0.02,0.295 0.029,0.435 0.076,0.17 0.221,0.295 0.313,0.454 0.213,0.38 0.381,0.797 0.396,1.236 v 0.016 c -0.012,0.226 -0.037,0.472 -0.189,0.65 -0.127,0.151 -0.33,0.197 -0.516,0.219 -0.133,0.019 -0.27,0.022 -0.402,0.014 -0.342,-0.049 -0.68,-0.111 -1.021,-0.163 -0.059,-0.009 -0.129,-0.009 -0.178,0.03 -0.07,0.051 -0.088,0.141 -0.096,0.222 -0.012,0.209 0.023,0.428 -0.055,0.629 -0.041,0.108 -0.137,0.179 -0.227,0.243 -0.193,0.135 -0.412,0.231 -0.613,0.354 -0.029,0.021 -0.023,0.063 -0.023,0.094 0.014,0.163 0.061,0.325 0.047,0.489 -0.004,0.106 -0.049,0.212 -0.129,0.283 -0.137,0.126 -0.256,0.271 -0.369,0.418 -0.02,0.025 -0.039,0.051 -0.045,0.082 -0.047,0.227 -0.07,0.459 -0.133,0.683 -0.035,0.114 -0.074,0.239 -0.168,0.32 -0.113,0.088 -0.258,-0.062 -0.373,0.029 -0.213,0.156 -0.279,0.43 -0.424,0.639 -0.084,0.105 -0.199,0.184 -0.322,0.234 -0.059,0.779 -0.111,1.559 -0.16,2.338 h -0.922 c 0.029,-0.495 0.059,-0.992 0.088,-1.489 0.035,-0.307 -0.018,-0.613 -0.057,-0.918 -0.002,-0.064 -0.076,-0.126 -0.141,-0.097 -0.184,0.054 -0.379,0.082 -0.57,0.052 -0.154,-0.041 -0.273,-0.156 -0.375,-0.273 -0.314,0.303 -0.770996,0.405 -1.194996,0.361 -0.086,-0.131 -0.143,-0.291 -0.289,-0.365 -0.094,-0.058 -0.213,-0.028 -0.307,0.017 -0.215,0.1 -0.346,0.322 -0.568,0.412 -0.197,0.091 -0.422,0.033 -0.609,-0.053 -0.201,-0.096 -0.389,-0.222 -0.568,-0.352 -0.092,0.042 -0.148,0.13 -0.199,0.213 -0.172,0.021 -0.352,0.08 -0.521,0.019 -0.275,-0.071 -0.467,-0.295 -0.701,-0.441 -0.16,0.118 -0.287,0.283 -0.479,0.349 -0.125,0.043 -0.262,0.071 -0.393,0.038 -0.146,-0.032 -0.287,-0.09 -0.432,-0.126 -0.047,-0.015 -0.1,-0.007 -0.145,0.014 -0.254,0.116 -0.391,0.397 -0.656,0.496 -0.055,0.026 -0.113,0.007 -0.168,-0.008 -0.061,0.679 -0.141,1.357 -0.205,2.037 -0.322,10e-4 -0.646,-10e-4 -0.969,10e-4 -0.016,-0.117 -0.055,-0.234 -0.035,-0.354 0.049,-0.406 0.115,-0.811 0.16,-1.218 0.033,-0.338 -0.148,-0.649 -0.373,-0.887 0.029,-0.132 -0.01,-0.268 -0.094,-0.371 -0.221,-0.294 -0.598,-0.417 -0.809,-0.721 -0.064,-0.094 -0.127,-0.223 -0.061,-0.332 0.051,-0.129 0.168,-0.247 0.137,-0.394 -0.006,-0.047 -0.029,-0.09 -0.061,-0.124 -0.191,-0.211 -0.352,-0.447 -0.508,-0.685 -0.072,-0.105 -0.066,-0.238 -0.078,-0.359 -0.025,-0.214 0.129,-0.394 0.143,-0.601 -0.035,-0.119 -0.15,-0.191 -0.213,-0.294 -0.143,-0.248 -0.242,-0.525 -0.256,-0.812 v -0.08 c 0.014,-0.134 0.014,-0.274 0.07,-0.399 0.092,-0.179 0.279,-0.289 0.369,-0.47 -0.039,-0.172 -0.133,-0.326 -0.172,-0.499 -0.018,-0.261 0.076,-0.526 0.25,-0.722 0.119,-0.006 0.236,-0.028 0.352,-0.053 0.113,-0.021 0.195,-0.112 0.258,-0.204 0.125,-0.187 0.146,-0.419 0.264,-0.61 0.045,-0.078 0.107,-0.152 0.191,-0.19 0.125,-0.06 0.25,-0.113 0.379,-0.157 0.068,-0.021 0.139,-0.043 0.211,-0.029 0.158,0.023 0.314,0.063 0.475,0.089 0.111,0.015 0.234,-0.016 0.311,-0.104 0.066,-0.076 0.084,-0.179 0.102,-0.274 0.166,-0.055 0.344,-0.116 0.518,-0.07 0.244,0.056 0.486,0.119 0.73,0.171 0.133,-0.065 0.197,-0.216 0.33,-0.281 0.156,-0.086 0.346,-0.061 0.512,-0.012 0.201,0.058 0.355,0.208 0.541,0.294 0.131,-0.077 0.232,-0.234 0.4,-0.227 0.303,0.079 0.551,0.322 0.873,0.333 0.221,0 0.318,-0.242 0.52,-0.284 0.133,-0.04 0.268,0.023 0.375,0.096 0.133,0.093 0.254,0.197 0.381,0.3 0.188,-0.11 0.4,-0.192 0.623,-0.183 0.258,0.047 0.506,0.134 0.764,0.181 0.109,-0.005 0.172,-0.115 0.266,-0.161 0.188996,-0.089 0.399996,-0.134 0.606996,-0.135 0.236,0.031 0.453,0.128 0.682,0.187 0.111,-0.03 0.203,-0.117 0.322,-0.122 0.182,-0.004 0.365,-0.001 0.547,-0.003 0.072,-0.056 0.139,-0.126 0.227,-0.159 0.154,-0.066 0.309,-0.149 0.48,-0.16 0.178,0.014 0.354,0.052 0.529,0.072 0.041,-0.25 0.15,-0.483 0.264,-0.706 0.223,-0.041 0.439,-0.104 0.652,-0.173 0.131,-0.088 0.228,-0.217 0.349,-0.318 z" id="path2194" style="fill:#020303" />
<polygon points="562.616,342.582 561.746,344.926 555.926,348.144 550.994,349.066 549.363,350.188 543.994,349.066 535.045,350.663 549.065,352.883 551.676,356.724 553.204,356.724 552.496,356.225 554.023,354.229 556.442,353.943 559.17,356.724 560.773,356.724 559.852,356.191 562.19,352.034 564.242,348.269 567.564,348.149 568.229,347.595 566.367,346.771 565.621,345.416 564.95,345.15 563.973,343.206 563.422,344.102 " transform="translate(-452.69958,-333.82281)" id="polygon2196" style="fill:#010202;stroke:#010202;stroke-width:0.46169999;stroke-linecap:round;stroke-linejoin:round;stroke-miterlimit:10" />
</svg>